# xmcd
#
# Track frame offsets: 
#        150
#        19011
#        34565
#        53197
#        81361
#        106696
#        122127
#        140951
#        159595
#        183505
#        202312
#        224630
#
# Disc length: 3193 seconds
#
# Revision: 2
# Processed by: cddbd v1.5.2PL0 Copyright (c) Steve Scherf et al.
# Submitted via: ExactAudioCopyFreeDBPlugin 1.0
#
DISCID=b30c770c
DTITLE=Ten Years After - A Sting In The Tail
DYEAR=2017
DGENRE=Rock
TTITLE0=Land Of The Vandals
TTITLE1=Iron Horse
TTITLE2=Miss Constable
TTITLE3=Up In Smoke
TTITLE4=Retired Hurt
TTITLE5=Suranne Suranne
TTITLE6=Stoned Alone
TTITLE7=Two Lost Souls
TTITLE8=Diamond Girl
TTITLE9=Last Night Of The Bottle
TTITLE10=Guitar Hero
TTITLE11=Silverspoon Lady
EXTD=
EXTT0=
EXTT1=
EXTT2=
EXTT3=
EXTT4=
EXTT5=
EXTT6=
EXTT7=
EXTT8=
EXTT9=
EXTT10=
EXTT11=
PLAYORDER=
